# xmcd
#
# Track frame offsets:
#	150
#	16248
#	30810
#	47975
#	61560
#	75750
#	90370
#	106840
#	119825
#	136140
#	149915
#	169905
#
# Disc length: 2420 seconds
#
# Revision: 1
# Processed by: cddbd v1.4b42PL0 Copyright (c) Steve Scherf et al.
# Submitted via: audiograbber 1.80
#
DISCID=8f09720c
DTITLE=Linda Feller - The Best of (Volume 1)
DYEAR=1900
DGENRE=
TTITLE0=Why the good girls love the bad boys
TTITLE1=Hold me close, hold me tight
TTITLE2=You are the pepper in my chilli
TTITLE3=Some words might be strangers
TTITLE4=Deep in my heart
TTITLE5=Appartement of love
TTITLE6=No one said it would be easy
TTITLE7=Two fists and glass of whisky
TTITLE8=I send you all my loving
TTITLE9=Where are the angels of freedom and love
TTITLE10=Happy days in the country
TTITLE11=I can never ever live without you
EXTD=
EXTT0=
EXTT1=
EXTT2=
EXTT3=
EXTT4=
EXTT5=
EXTT6=
EXTT7=
EXTT8=
EXTT9=
EXTT10=
EXTT11=
PLAYORDER=
